<?xml version="1.0" encoding="UTF-8" standalone="no"?>
<!-- Created with Inkscape (http://www.inkscape.org/) -->

<svg width="24" height="24" id="svg4682" version="1.1" inkscape:version="1.1.2 (0a00cf5339, 2022-02-04)"
        sodipodi:docname="ic_no_podcast.svg" inkscape:export-filename="/home/corbax/Dev/android/Icons/Test 1/ic_play_normal.png"
        inkscape:export-xdpi="90" inkscape:export-ydpi="90" xmlns:inkscape="http://www.inkscape.org/namespaces/inkscape"
        xmlns:sodipodi="http://sodipodi.sourceforge.net/DTD/sodipodi-0.dtd" xmlns="http://www.w3.org/2000/svg"
        xmlns:rdf="http://www.w3.org/1999/02/22-rdf-syntax-ns#" xmlns:cc="http://creativecommons.org/ns#"
        xmlns:dc="http://purl.org/dc/elements/1.1/">
  <defs
     id="defs4684" />
  <sodipodi:namedview
     id="base"
     pagecolor="#ffffff"
     bordercolor="#666666"
     borderopacity="1.0"
     inkscape:pageopacity="0.0"
     inkscape:pageshadow="2"
     inkscape:zoom="22.4"
     inkscape:cx="-3.3928571"
     inkscape:cy="8.1026786"
     inkscape:document-units="px"
     inkscape:current-layer="layer1"
     showgrid="true"
     inkscape:window-width="2560"
     inkscape:window-height="1376"
     inkscape:window-x="0"
     inkscape:window-y="0"
     inkscape:window-maximized="1"
     inkscape:snap-grids="true"
     inkscape:snap-bbox="true"
     inkscape:bbox-paths="true"
     inkscape:bbox-nodes="true"
     inkscape:snap-bbox-edge-midpoints="true"
     inkscape:snap-bbox-midpoints="true"
     inkscape:pagecheckerboard="0">
    <inkscape:grid
       type="xygrid"
       id="grid3002" />
  </sodipodi:namedview>
  <metadata
     id="metadata4687">
    <rdf:RDF>
      <cc:Work
         rdf:about="">
        <dc:format>image/svg+xml</dc:format>
        <dc:type
           rdf:resource="http://purl.org/dc/dcmitype/StillImage" />
      </cc:Work>
    </rdf:RDF>
  </metadata>
  <g
     inkscape:label="Layer 1"
     inkscape:groupmode="layer"
     id="layer1"
     transform="translate(0,-1028.3622)">
    <g
       style="fill:#000000"
       id="g27"
       transform="matrix(0.79166667,0,0,0.79166667,2.5,1030.8622)">
      <g
         id="g11">
        <path
           d="M 0,0 H 24 V 24 H 0 Z"
           fill="none"
           id="path9" />
      </g>
      <g
         id="g15"
         style="fill:#bdbdbd;fill-opacity:1">
        <path
           d="m 14,12 c 0,0.74 -0.4,1.38 -1,1.72 V 22 H 11 V 13.72 C 10.4,13.37 10,12.74 10,12 c 0,-1.1 0.9,-2 2,-2 1.1,0 2,0.9 2,2 z M 12,6 c -3.31,0 -6,2.69 -6,6 0,1.74 0.75,3.31 1.94,4.4 L 9.36,14.98 C 8.53,14.25 8,13.19 8,12 8,9.79 9.79,8 12,8 c 2.21,0 4,1.79 4,4 0,1.19 -0.53,2.25 -1.36,2.98 l 1.42,1.42 C 17.25,15.31 18,13.74 18,12 18,8.69 15.31,6 12,6 Z M 12,2 C 6.48,2 2,6.48 2,12 c 0,2.85 1.2,5.41 3.11,7.24 L 6.53,17.82 C 4.98,16.36 4,14.29 4,12 4,7.59 7.59,4 12,4 c 4.41,0 8,3.59 8,8 0,2.29 -0.98,4.36 -2.53,5.82 l 1.42,1.42 C 20.8,17.41 22,14.85 22,12 22,6.48 17.52,2 12,2 Z"
           id="path13"
           style="fill:#bdbdbd;fill-opacity:1" />
      </g>
    </g>
  </g>
</svg>
