<?xml version="1.0" encoding="UTF-8" standalone="no"?>
<!-- Created with Inkscape (http://www.inkscape.org/) -->

<svg width="48" height="48" id="svg4682" version="1.1" inkscape:version="1.1.2 (0a00cf5339, 2022-02-04)"
        sodipodi:docname="ic_podcast_big.svg" inkscape:export-filename="/home/corbax/Dev/android/Icons/Test 1/ic_play_normal.png"
        inkscape:export-xdpi="90" inkscape:export-ydpi="90" xmlns:inkscape="http://www.inkscape.org/namespaces/inkscape"
        xmlns:sodipodi="http://sodipodi.sourceforge.net/DTD/sodipodi-0.dtd" xmlns="http://www.w3.org/2000/svg"
        xmlns:rdf="http://www.w3.org/1999/02/22-rdf-syntax-ns#" xmlns:cc="http://creativecommons.org/ns#"
        xmlns:dc="http://purl.org/dc/elements/1.1/">
  <defs
     id="defs4684" />
  <sodipodi:namedview
     id="base"
     pagecolor="#ffffff"
     bordercolor="#666666"
     borderopacity="1.0"
     inkscape:pageopacity="0.0"
     inkscape:pageshadow="2"
     inkscape:zoom="5.6"
     inkscape:cx="-14.107143"
     inkscape:cy="25.982143"
     inkscape:document-units="px"
     inkscape:current-layer="layer1"
     showgrid="true"
     inkscape:window-width="2560"
     inkscape:window-height="1376"
     inkscape:window-x="0"
     inkscape:window-y="0"
     inkscape:window-maximized="1"
     inkscape:pagecheckerboard="0">
    <inkscape:grid
       type="xygrid"
       id="grid816" />
  </sodipodi:namedview>
  <metadata
     id="metadata4687">
    <rdf:RDF>
      <cc:Work
         rdf:about="">
        <dc:format>image/svg+xml</dc:format>
        <dc:type
           rdf:resource="http://purl.org/dc/dcmitype/StillImage" />
      </cc:Work>
    </rdf:RDF>
  </metadata>
  <g
     inkscape:label="Layer 1"
     inkscape:groupmode="layer"
     id="layer1"
     transform="translate(0,-1004.3622)">
    <g
       style="fill:#000000"
       id="g906"
       transform="matrix(1.25,0,0,1.25,9,1013.3622)">
      <g
         id="g890">
        <path
           d="M 0,0 H 24 V 24 H 0 Z"
           fill="none"
           id="path888" />
      </g>
      <g
         id="g894">
        <path
           d="m 14,12 c 0,0.74 -0.4,1.38 -1,1.72 V 21 c 0,0.55 -0.45,1 -1,1 v 0 c -0.55,0 -1,-0.45 -1,-1 V 13.72 C 10.4,13.37 10,12.74 10,12 c 0,-1.1 0.9,-2 2,-2 1.1,0 2,0.9 2,2 z M 10.75,6.13 c -2.27,0.46 -4.12,2.28 -4.61,4.55 -0.4,1.86 0.07,3.62 1.08,4.94 0.35,0.45 1.03,0.47 1.43,0.07 L 8.72,15.62 C 9.06,15.28 9.06,14.75 8.78,14.37 8.1,13.47 7.8,12.27 8.12,11 8.47,9.58 9.64,8.43 11.07,8.12 13.69,7.52 16,9.49 16,12 c 0,0.87 -0.28,1.67 -0.76,2.32 -0.3,0.41 -0.29,0.97 0.07,1.33 v 0 c 0.44,0.44 1.17,0.37 1.54,-0.14 C 17.57,14.53 18,13.31 18,12 18,8.28 14.61,5.35 10.75,6.13 Z M 10.83,2.07 C 6.3,2.58 2.61,6.25 2.07,10.78 c -0.35,2.95 0.59,5.67 2.32,7.7 0.37,0.43 1.03,0.46 1.43,0.06 L 5.87,18.49 C 6.22,18.14 6.25,17.57 5.92,17.19 4.36,15.36 3.59,12.82 4.22,10.13 4.92,7.12 7.4,4.74 10.44,4.16 15.53,3.18 20,7.08 20,12 c 0,1.96 -0.72,3.76 -1.9,5.16 -0.34,0.4 -0.31,0.98 0.05,1.35 v 0 c 0.42,0.42 1.11,0.39 1.49,-0.07 C 21.11,16.7 22,14.46 22,12 22,6.09 16.87,1.38 10.83,2.07 Z"
           id="path892"
           style="fill:#757575;fill-opacity:1" />
      </g>
    </g>
  </g>
</svg>
